<?xml version="1.0" encoding="utf-8"?>
<svg xmlns="http://www.w3.org/2000/svg" xmlns:xlink="http://www.w3.org/1999/xlink" viewBox="194.6 120.3 883.1 525.4">
<linearGradient id="SVGID_1_" gradientUnits="userSpaceOnUse" x1="333.3869" y1="731.06" x2="934.567" y2="731.06" gradientTransform="matrix(1 0 0 -1 0 1114.1101)">
					<stop  offset="0" style="stop-color:#51B9FF"/>
					<stop  offset="8.000000e-02" style="stop-color:#649EFF"/>
					<stop  offset="0.23" style="stop-color:#8174FF"/>
					<stop  offset="0.38" style="stop-color:#9952FF"/>
					<stop  offset="0.53" style="stop-color:#AB37FF"/>
					<stop  offset="0.68" style="stop-color:#B924FF"/>
					<stop  offset="0.83" style="stop-color:#C019FF"/>
					<stop  offset="1" style="stop-color:#C315FF"/>
				</linearGradient>
  <path d="M672.3,483.9c-18.2,43-36.6,86-54.8,129.1h-71.9c26.1-61.4,52.1-122.8,78.2-184.3h206.9
					c79.3,0,135.3-45.7,135.3-110.3s-56-110.3-135.3-110.3H611.3c7.8-18.4,15.6-36.8,23.4-55.1h196c138.9,0,214.3,68.5,214.3,165.4
					s-75.5,165.4-214.3,165.4C777.9,483.9,725.1,483.9,672.3,483.9L672.3,483.9z" fill="url(#SVGID_1_)"/>
  <polygon points="471,208.2 399.1,208.2 422.5,153.1 494.3,153.1 				" fill="url(#SVGID_1_)"/>
  <polygon points="352.3,318.4 424.2,318.4 299.2,613 227.3,613 				" fill="url(#SVGID_1_)"/>
  <path d="M934.6,318.4c0,48.5-43,82.7-103.9,82.7H601.3c-30,70.6-59.9,141.2-89.9,211.9h-71.9
					c37.8-89,75.5-178,113.3-267h214.6c0,0,13.9,0,41.6,0.1c27.8,0.1,49.3-12.3,48-27.5c-1.2-14.7-23.5-27-50.3-27.7H542
					C496.4,398.3,450.9,505.7,405.3,613h-71.9c45.6-107.3,91.1-214.7,136.7-322.1H364c7.8-18.4,15.6-36.8,23.4-55.1h106.1
					c11.7-27.6,23.4-55.1,35.1-82.7h71.9c-11.7,27.6-23.4,55.1-35.1,82.7h265.3C891.5,235.8,934.6,270,934.6,318.4L934.6,318.4z" fill="url(#SVGID_1_)"/>
</svg>
