<?xml version="1.0" encoding="utf-8"?>
<!-- Generator: Adobe Illustrator 27.6.1, SVG Export Plug-In . SVG Version: 6.00 Build 0)  -->
<svg version="1.1" xmlns="http://www.w3.org/2000/svg" xmlns:xlink="http://www.w3.org/1999/xlink" x="0px" y="0px"
	 viewBox="0 0 1303.9 1026.5" style="enable-background:new 0 0 1303.9 1026.5;" xml:space="preserve">
<style type="text/css">
	.st0{fill:none;}
	.st1{fill:#FFFFFF;}
	.st2{fill:#FFFFFF;}
	.st3{font-family:'Montserrat-Light';}
	.st4{font-size:77.08px;}
	.st5{letter-spacing:-1;}
	.st6{enable-background:new    ;}
	.st7{fill:#FFFFFF;}
	.st8{font-family:'Montserrat-SemiBold';}
	.st9{font-size:186px;}
	.st10{fill:#FFFFFF;}
</style>

<g id="Capa_2_00000062165251497797068450000014830965081530903936_">
	<g id="Capa_1-2">
		<g>
			<path class="st1" d="M735.5,844c1.5,3.1,2.5,6.5,2.8,10.2h-48.6c0.5-3.7,1.4-7.1,2.8-10.1c2.1-4.4,5-7.8,8.6-10.3s8-3.7,12.9-3.7
				c4.8,0,9,1.2,12.7,3.7C730.4,836.2,733.3,839.7,735.5,844z"/>
			<path class="st1" d="M776.4,775.9v135h-44.1c1.6-0.5,3.2-1.2,4.7-1.9c5.8-2.8,10.6-6.8,14.5-12l-10.7-14.3
				c-3,3.7-6.4,6.5-10.2,8.2c-3.8,1.7-8.2,2.6-13,2.6c-5.5,0-10.5-1.2-14.7-3.7c-4.3-2.5-7.6-6-9.9-10.6c-1.5-2.9-2.5-6-3-9.5h67
				c0.1-1.1,0.2-2.3,0.2-3.5c0-1.2,0.1-2.3,0.1-3.3c0-10.4-1.9-19.5-5.6-27.2c-3.7-7.7-8.9-13.6-15.4-17.9
				c-6.5-4.2-13.9-6.3-22.2-6.3c-8.5,0-16.1,2.2-22.8,6.5c-6.7,4.3-11.9,10.3-15.7,18c-3.8,7.6-5.7,16.4-5.7,26.3
				c0,9.8,1.9,18.5,5.8,26.2c3.9,7.7,9.4,13.7,16.5,18.1c2.9,1.8,6,3.2,9.3,4.3H590.9v-37h25.3c9.9,0,18.4-1.9,25.5-5.6
				c7.1-3.7,12.6-9,16.4-16c3.8-6.9,5.8-15.2,5.8-24.7c0-9.5-1.9-17.8-5.8-24.7c-3.8-7-9.3-12.3-16.4-16c-7.1-3.7-15.6-5.6-25.5-5.6
				h-46.1v9.2h-0.2v12h53.7c5.1,1,9.2,3,12.3,6c4.6,4.5,7,10.8,7,19.2c0,8.2-2.3,14.5-7,19.1c-4.6,4.5-11.5,6.8-20.7,6.8h-21.4v0
				h-23.7v57.4h-9.6c-14.8,0-26.8-11.2-26.8-24.9V775.9H776.4z"/>
			<rect x="796.4" y="775.9" class="st1" width="26.2" height="135"/>
			<path class="st1" d="M932.5,899.2v11.6h-14.9c2-0.8,3.8-1.7,5.7-2.8C926.9,905.8,930,902.9,932.5,899.2z"/>
			<path class="st1" d="M1133.3,862.2c0,6.3-1.1,11.8-3.3,16.6c-2.2,4.7-5.2,8.3-9,10.8c-3.8,2.5-8.2,3.7-13.1,3.7
				c-4.8,0-9.1-1.2-12.9-3.7c-3.8-2.5-6.8-6.1-9-10.8c-2.2-4.7-3.4-10.2-3.4-16.6c0-6.4,1.1-12,3.4-16.6c2.2-4.7,5.2-8.2,9-10.7
				c3.8-2.5,8.1-3.7,13-3.7c4.8,0,9.1,1.2,13,3.7c3.8,2.5,6.8,6,9,10.7C1132.2,850.2,1133.3,855.8,1133.3,862.2z"/>
			<path class="st1" d="M1184.7,775.9v135h-62.2c3.2-1.1,6.1-2.5,9-4.3c6.9-4.4,12.3-10.5,16.1-18.1c3.9-7.7,5.8-16.4,5.8-26.2
				c0-10-1.9-18.8-5.8-26.4c-3.9-7.6-9.3-13.5-16.1-17.9c-6.9-4.3-14.8-6.5-23.6-6.5c-8.7,0-16.5,2.2-23.3,6.5
				c-6.8,4.3-12.2,10.3-16.2,18c-3.9,7.6-5.9,16.4-5.9,26.3c0,9.8,2,18.5,5.9,26.2c4,7.7,9.3,13.7,16.2,18.1
				c2.8,1.8,5.8,3.2,8.9,4.3h-62.1c2.7-1,5.3-2.2,7.7-3.7c6.3-4,11.2-9.8,14.5-17.2l-15.3-10.4c-2.6,4.7-5.7,8.2-9.4,10.4
				s-7.7,3.4-11.9,3.4c-4.9,0-9.3-1.2-13.3-3.7c-3.9-2.5-7-6-9.3-10.7c-2.2-4.7-3.4-10.2-3.4-16.7c0-6.4,1.1-12,3.4-16.6
				c2.2-4.7,5.3-8.2,9.3-10.7c3.9-2.5,8.4-3.7,13.3-3.7c4.3,0,8.2,1.1,11.9,3.3c3.7,2.2,6.8,5.7,9.4,10.4l15.3-10.4
				c-3.3-7.6-8.1-13.3-14.5-17.2c-6.3-3.9-13.7-5.9-22-5.9c-9,0-16.9,2.2-23.9,6.5c-7,4.3-12.5,10.3-16.4,18
				c-3.9,7.6-5.9,16.4-5.9,26.3c0,9.8,2,18.5,5.9,26.2c3.9,7.7,9.4,13.7,16.4,18.1c2.9,1.8,5.9,3.2,9.1,4.3h-50.6v-98.3h-20v50.2
				c0,6.6-1,12.1-3,16.5c-2,4.5-4.7,7.8-8.2,10c-3.5,2.2-7.5,3.3-12.2,3.3c-6.4,0-11.3-2.2-14.8-6.6c-3.5-4.4-5.2-11.1-5.2-20v-53.6
				h-20v56.7c0,9.9,1.5,18.1,4.6,24.6c3.1,6.5,7.4,11.4,13,14.5c1.7,1,3.5,1.8,5.3,2.4h-48.5v-135H1184.7z"/>
			<text transform="matrix(1 0 0 1 77.9869 741.6902)" class="st2 st3 st4">Iglesia Me</text>
			<text transform="matrix(1 0 0 1 460.8569 741.6902)" class="st2 st3 st4 st5">t</text>
			<text transform="matrix(1 0 0 1 490.0669 741.6902)" class="st2 st3 st4">odista </text>
			<text transform="matrix(1 0 0 1 742.2869 741.6902)" class="st2 st3 st4">P</text>
			<text transform="matrix(1 0 0 1 796.3969 741.6902)" class="st2 st3 st4">en</text>
			<text transform="matrix(1 0 0 1 894.2969 741.6902)" class="st2 st3 st4 st5">t</text>
			<text transform="matrix(1 0 0 1 923.507 741.6902)" class="st2 st3 st4">e</text>
			<text transform="matrix(1 0 0 1 969.5269 741.6902)" class="st2 st3 st4">c</text>
			<text transform="matrix(1 0 0 1 1011.6169 741.6902)" class="st2 st3 st4">ostal</text>
			<g class="st6">
				<polygon class="st7" points="111.6,853.8 111.6,853.9 102.4,853.9 102.3,853.8 				"/>
				<path class="st7" d="M215.1,796.2c-3.7,0-6.8-1.4-9.2-4.1c-2.4-2.7-3.6-6-3.6-9.9c0-4,1.2-7.3,3.6-10c2.4-2.7,5.5-4,9.2-4
					c3.7,0,6.8,1.3,9.2,3.8c2.4,2.5,3.6,5.7,3.6,9.6c0,4.1-1.2,7.5-3.5,10.3C222,794.8,219,796.2,215.1,796.2z M205,911.9v-99.3h20
					v99.3H205z"/>
			</g>
			<text transform="matrix(0.86 0 0 1 238.1462 911.8799)" class="st7 st8 st9">c</text>
			<text transform="matrix(0.86 0 0 1 330.278 911.8799)" class="st7 st8 st9">hi</text>
			<path class="st7" d="M184.6,828c0,9.5-1.9,17.8-5.8,24.7c-3.8,7-9.3,12.3-16.4,16c-7.1,3.7-15.6,5.6-25.5,5.6h-25.3v37.6H90.8
				v-58h23.7v0h21.4c9.2,0,16.1-2.3,20.7-6.8c4.6-4.5,7-10.9,7-19.1c0-8.3-2.3-14.7-7-19.1c-3.1-3-7.2-5-12.3-6H90.7v-12h0.2v-9.2
				h46.1c9.9,0,18.4,1.9,25.5,5.6c7.1,3.7,12.6,9,16.4,16C182.6,810.2,184.6,818.5,184.6,828z"/>
			<rect x="90.7" y="853.9" class="st7" width="0.2" height="12"/>
		</g>
		<g>
			<g id="SPLINE">
				<path class="st2" d="M672.3,483.9c-18.2,43-36.6,86-54.8,129.1h-71.9c26.1-61.4,52.1-122.8,78.2-184.3h206.9
					c79.3,0,135.3-45.7,135.3-110.3s-56-110.3-135.3-110.3H611.3c7.8-18.4,15.6-36.8,23.4-55.1h196c138.9,0,214.3,68.5,214.3,165.4
					s-75.5,165.4-214.3,165.4C777.9,483.9,725.1,483.9,672.3,483.9L672.3,483.9z"/>
			</g>
			<g id="LWPOLYLINE">
				<polygon class="st2" points="471,208.2 399.1,208.2 422.5,153.1 494.3,153.1 				"/>
			</g>
			<g id="LWPOLYLINE-2">
				<polygon class="st2" points="352.3,318.4 424.2,318.4 299.2,613 227.3,613 				"/>
			</g>
			<g id="SPLINE-2">
				
					<linearGradient id="SVGID_1_" gradientUnits="userSpaceOnUse" x1="333.3869" y1="731.06" x2="934.567" y2="731.06" gradientTransform="matrix(1 0 0 -1 0 1114.1101)">
					<stop  offset="0" style="stop-color:#51B9FF"/>
					<stop  offset="8.000000e-02" style="stop-color:#649EFF"/>
					<stop  offset="0.23" style="stop-color:#8174FF"/>
					<stop  offset="0.38" style="stop-color:#9952FF"/>
					<stop  offset="0.53" style="stop-color:#AB37FF"/>
					<stop  offset="0.68" style="stop-color:#B924FF"/>
					<stop  offset="0.83" style="stop-color:#C019FF"/>
					<stop  offset="1" style="stop-color:#C315FF"/>
				</linearGradient>
				<path class="st10" d="M934.6,318.4c0,48.5-43,82.7-103.9,82.7H601.3c-30,70.6-59.9,141.2-89.9,211.9h-71.9
					c37.8-89,75.5-178,113.3-267h214.6c0,0,13.9,0,41.6,0.1c27.8,0.1,49.3-12.3,48-27.5c-1.2-14.7-23.5-27-50.3-27.7H542
					C496.4,398.3,450.9,505.7,405.3,613h-71.9c45.6-107.3,91.1-214.7,136.7-322.1H364c7.8-18.4,15.6-36.8,23.4-55.1h106.1
					c11.7-27.6,23.4-55.1,35.1-82.7h71.9c-11.7,27.6-23.4,55.1-35.1,82.7h265.3C891.5,235.8,934.6,270,934.6,318.4L934.6,318.4z"/>
			</g>
		</g>
	</g>
</g>
</svg>
